<svg version="1.1" xmlns="http://www.w3.org/2000/svg" xmlns:xlink="http://www.w3.org/1999/xlink" width="48" height="48.55172" viewBox="0,0,48,48.55172"><defs><linearGradient x1="240.10882" y1="156.23047" x2="240.10882" y2="188.94475" gradientUnits="userSpaceOnUse" id="color-1"><stop offset="0" stop-color="#ffffff"/><stop offset="1" stop-color="#ffffff" stop-opacity="0"/></linearGradient><linearGradient x1="240.10882" y1="169.37333" x2="240.10882" y2="202.08761" gradientUnits="userSpaceOnUse" id="color-2"><stop offset="0" stop-color="#ffffff" stop-opacity="0"/><stop offset="1" stop-color="#ffffff" stop-opacity="0.57255"/></linearGradient></defs><g transform="translate(-216,-155.72414)"><g stroke-miterlimit="10"><path d="M264,180c0,13.40719 -10.74517,24.27586 -24,24.27586c-13.25483,0 -24,-10.86867 -24,-24.27586c0,-13.40719 10.74517,-24.27586 24,-24.27586c13.25483,0 24,10.86867 24,24.27586z" fill="#ff0000" stroke="none" stroke-width="0"/><path d="M231.87179,194.5v-20.56642h16.34932v20.56642z" fill="none" stroke="#ffffff" stroke-width="3"/><path d="M229.45655,170.69478v-0.8097h21.0869v0.8097z" fill="none" stroke="#ffffff" stroke-width="3"/><path d="M236.44542,170.20896v-4.70896h7.01627v4.70896z" fill="none" stroke="#ffffff" stroke-width="3"/><path d="M261.03739,172.58761c0,9.0338 -9.37004,16.35714 -20.92857,16.35714c-11.55853,0 -20.92857,-7.32334 -20.92857,-16.35714c0,-9.0338 9.37004,-16.35714 20.92857,-16.35714c11.55853,0 20.92857,7.32334 20.92857,16.35714z" fill="url(#color-1)" stroke="none" stroke-width="0"/><path d="M261.03739,185.73047c0,9.0338 -9.37005,16.35714 -20.92857,16.35714c-11.55853,0 -20.92857,-7.32334 -20.92857,-16.35714c0,-9.0338 9.37004,-16.35714 20.92857,-16.35714c11.55853,0 20.92857,7.32334 20.92857,16.35714z" fill="none" stroke="url(#color-2)" stroke-width="3.5"/></g></g></svg>