<svg version="1.1" xmlns="http://www.w3.org/2000/svg" xmlns:xlink="http://www.w3.org/1999/xlink" width="17.71289" height="27.37172" viewBox="0,0,17.71289,27.37172"><g transform="translate(-229.5562,-166.7085)"><g data-paper-data="{&quot;isPaintingLayer&quot;:true}" fill-rule="nonzero" stroke="#ffffff" stroke-linecap="butt" stroke-linejoin="miter" stroke-miterlimit="10" stroke-dasharray="" stroke-dashoffset="0" style="mix-blend-mode: normal"><path d="M233.51235,192.42782c-1.24298,-0.00008 -2.25076,-0.94507 -2.25067,-2.10992l0.00135,-14.72195c0.00009,-1.1651 1.00826,-2.10947 2.25098,-2.10939l9.79926,0.00064c1.24298,0.00008 2.25049,0.94459 2.2504,2.10968l-0.00135,14.72171c-0.00009,1.16559 -1.00773,2.10971 -2.25071,2.10963l-9.79926,-0.00064z" data-paper-data="{&quot;index&quot;:null}" fill="#04ff00" stroke-width="0"/><path d="M232.68812,168.92767l11.45119,0.00075c1.45252,0.00009 2.62988,1.0434 2.62978,2.33126l-0.00149,19.9899c-0.0001,1.28731 -1.1776,2.33074 -2.63012,2.33064l-11.45119,-0.00075c-1.45222,-0.00009 -2.63019,-1.04367 -2.63009,-2.33099l0.00149,-19.99017c0.0001,-1.28704 1.17791,-2.331 2.63043,-2.33091z" data-paper-data="{&quot;index&quot;:null}" fill="none" stroke-width="1"/><path d="M235.56163,167.2085l5.76501,0.00037z" data-paper-data="{&quot;index&quot;:null}" fill="none" stroke-width="1"/></g></g></svg>