<svg version="1.1" xmlns="http://www.w3.org/2000/svg" xmlns:xlink="http://www.w3.org/1999/xlink" width="48" height="48.55172" viewBox="0,0,48,48.55172"><defs><linearGradient x1="240.10882" y1="169.37333" x2="240.10882" y2="202.08761" gradientUnits="userSpaceOnUse" id="color-1"><stop offset="0" stop-color="#ffffff" stop-opacity="0"/><stop offset="1" stop-color="#ffffff" stop-opacity="0.57255"/></linearGradient><linearGradient x1="239.98382" y1="155.85547" x2="239.98382" y2="188.56975" gradientUnits="userSpaceOnUse" id="color-2"><stop offset="0" stop-color="#ffffff"/><stop offset="1" stop-color="#ffffff" stop-opacity="0"/></linearGradient></defs><g transform="translate(-216,-155.72414)"><g stroke-miterlimit="10"><path d="M264,180c0,13.40719 -10.74517,24.27586 -24,24.27586c-13.25483,0 -24,-10.86867 -24,-24.27586c0,-13.40719 10.74517,-24.27586 24,-24.27586c13.25483,0 24,10.86867 24,24.27586z" fill="#00a3ff" stroke="none" stroke-width="0"/><path d="M229.375,191.9375v-23.875h7v23.875z" fill="#ffffff" stroke="none" stroke-width="0"/><path d="M243.625,191.9375v-23.875h7v23.875z" fill="#ffffff" stroke="none" stroke-width="0"/><path d="M261.03739,185.73047c0,9.0338 -9.37005,16.35714 -20.92857,16.35714c-11.55853,0 -20.92857,-7.32334 -20.92857,-16.35714c0,-9.0338 9.37004,-16.35714 20.92857,-16.35714c11.55853,0 20.92857,7.32334 20.92857,16.35714z" fill="none" stroke="url(#color-1)" stroke-width="3.5"/><path d="M260.91239,172.21261c0,9.0338 -9.37004,16.35714 -20.92857,16.35714c-11.55853,0 -20.92857,-7.32334 -20.92857,-16.35714c0,-9.0338 9.37004,-16.35714 20.92857,-16.35714c11.55853,0 20.92857,7.32334 20.92857,16.35714z" fill="url(#color-2)" stroke="none" stroke-width="0"/></g></g></svg>