<svg version="1.1" xmlns="http://www.w3.org/2000/svg" xmlns:xlink="http://www.w3.org/1999/xlink" width="23.40211" height="28" viewBox="0,0,23.40211,28"><g transform="translate(-230.24504,-163.49845)"><g data-paper-data="{&quot;isPaintingLayer&quot;:true}" fill-rule="nonzero" stroke-linecap="butt" stroke-linejoin="miter" stroke-miterlimit="10" stroke-dasharray="" stroke-dashoffset="0" style="mix-blend-mode: normal"><path d="M248.84076,179.2997c-3.35853,-2.60811 -10.03775,-2.5648 -13.66321,0.42213l-2.02963,-2.5717c3.70457,-2.30382 9.00246,-3.08152 13.07469,-1.95018c1.3841,0.34096 4.2353,1.95722 4.34405,2.01448z" fill-opacity="0.50196" fill="#595959" stroke-opacity="0.4902" stroke="#595959" stroke-width="0.5"/><path d="M230.60961,173.93441c0,0 6.54741,-3.68108 11.79135,-3.81144c4.89275,-0.01947 10.84056,3.91427 10.84754,3.91745l-1.77072,2.16974c-1.45576,-0.78304 -3.20832,-1.88043 -5.36233,-2.30514c-3.74068,-1.25741 -9.86355,-0.29347 -13.91951,2.2657z" fill-opacity="0.50196" fill="#595959" stroke-opacity="0.4902" stroke="#595959" stroke-width="0.5"/><path d="M236.0774,180.65028c3.1015,-2.59553 8.64653,-2.64953 12.00089,-0.42048l-2.33128,3.0244c-2.38256,-1.06289 -5.19616,-1.28771 -7.38079,0.24195z" fill-opacity="0.50196" fill="#595959" stroke-opacity="0.4902" stroke="#595959" stroke-width="0.5"/><path d="M242.04016,187.92089l-2.79997,-3.3088c1.63258,-1.15032 3.74902,-1.11789 5.60657,-0.22172z" fill-opacity="0.50196" fill="#595959" stroke-opacity="0.4902" stroke="#595959" stroke-width="0.5"/><path d="M252.19294,173.37374v0.00001v0z" fill-opacity="0.50196" fill="#595959" stroke-opacity="0.4902" stroke="#595959" stroke-width="0"/><text transform="translate(239.17904,185.24845) scale(0.5,0.5)" font-size="40" xml:space="preserve" fill-opacity="0.50196" fill="#ffffff" fill-rule="nonzero" stroke="none" stroke-width="1" stroke-linecap="butt" stroke-linejoin="miter" stroke-miterlimit="10" stroke-dasharray="" stroke-dashoffset="0" font-family="Sans Serif" font-weight="normal" text-anchor="start" style="mix-blend-mode: normal"><tspan x="0" dy="0">!</tspan></text></g></g></svg>