<svg version="1.1" xmlns="http://www.w3.org/2000/svg" xmlns:xlink="http://www.w3.org/1999/xlink" width="48" height="48.55172" viewBox="0,0,48,48.55172"><defs><linearGradient x1="240.10882" y1="156.23047" x2="240.10882" y2="188.94475" gradientUnits="userSpaceOnUse" id="color-1"><stop offset="0" stop-color="#ffffff"/><stop offset="1" stop-color="#ffffff" stop-opacity="0"/></linearGradient><linearGradient x1="240.10882" y1="169.37333" x2="240.10882" y2="202.08761" gradientUnits="userSpaceOnUse" id="color-2"><stop offset="0" stop-color="#ffffff" stop-opacity="0"/><stop offset="1" stop-color="#ffffff" stop-opacity="0.57255"/></linearGradient></defs><g transform="translate(-216,-155.72414)"><g stroke-miterlimit="10"><path d="M264,180c0,13.40719 -10.74517,24.27586 -24,24.27586c-13.25483,0 -24,-10.86867 -24,-24.27586c0,-13.40719 10.74517,-24.27586 24,-24.27586c13.25483,0 24,10.86867 24,24.27586z" fill="#edd500" stroke="none" stroke-width="0" stroke-linecap="butt"/><path d="M248.71502,185.86319l-7.44261,0.14001l-7.03292,-12.18068l-7.44261,0.14001" fill="none" stroke="#ffffff" stroke-width="3" stroke-linecap="round"/><path d="M248.57846,173.82252l-7.44261,0.14001l-6.7598,11.90066l-7.44261,0.14001" fill="none" stroke="#ffffff" stroke-width="3" stroke-linecap="round"/><path d="M249.04239,171.25405l3.64196,2.55061l-3.42624,2.90061z" fill="none" stroke="#ffffff" stroke-width="3" stroke-linecap="butt"/><path d="M249.56117,183.29472l3.64195,2.55061l-3.42624,2.90061z" fill="none" stroke="#ffffff" stroke-width="3" stroke-linecap="butt"/><path d="M261.03739,172.58761c0,9.0338 -9.37004,16.35714 -20.92857,16.35714c-11.55853,0 -20.92857,-7.32334 -20.92857,-16.35714c0,-9.0338 9.37004,-16.35714 20.92857,-16.35714c11.55853,0 20.92857,7.32334 20.92857,16.35714z" fill="url(#color-1)" stroke="none" stroke-width="0" stroke-linecap="butt"/><path d="M261.03739,185.73047c0,9.0338 -9.37005,16.35714 -20.92857,16.35714c-11.55853,0 -20.92857,-7.32334 -20.92857,-16.35714c0,-9.0338 9.37004,-16.35714 20.92857,-16.35714c11.55853,0 20.92857,7.32334 20.92857,16.35714z" fill="none" stroke="url(#color-2)" stroke-width="3.5" stroke-linecap="butt"/></g></g></svg>