<svg version="1.1" xmlns="http://www.w3.org/2000/svg" xmlns:xlink="http://www.w3.org/1999/xlink" width="17.71289" height="27.37172" viewBox="0,0,17.71289,27.37172"><g transform="translate(-229.55621,-166.7085)"><g data-paper-data="{&quot;isPaintingLayer&quot;:true}" fill-rule="nonzero" stroke-linecap="butt" stroke-linejoin="miter" stroke-miterlimit="10" stroke-dasharray="" stroke-dashoffset="0" style="mix-blend-mode: normal"><path d="M233.51237,192.42782c-0.67201,-0.00004 -1.3021,-0.25514 -1.71963,-0.67851c-0.27479,-0.27864 0.47857,-0.62261 1.72129,-0.62253l9.79926,0.00064c1.24298,0.00008 1.94435,0.33952 1.64891,0.63434c-0.41204,0.41117 -1.00181,0.66651 -1.65057,0.66647l-9.79926,-0.00064z" data-paper-data="{&quot;index&quot;:null}" fill="#ff0000" stroke="#ffffff" stroke-width="0"/><path d="M232.68814,168.92767l11.45119,0.00075c1.45252,0.00009 2.62988,1.0434 2.62978,2.33126l-0.00149,19.9899c-0.0001,1.28731 -1.1776,2.33074 -2.63012,2.33064l-11.45119,-0.00075c-1.45222,-0.00009 -2.63019,-1.04367 -2.63009,-2.33099l0.00149,-19.99017c0.0001,-1.28704 1.17791,-2.331 2.63043,-2.33091z" data-paper-data="{&quot;index&quot;:null}" fill="none" stroke="#808080" stroke-width="1"/><path d="M235.56165,167.2085l5.76501,0.00037z" data-paper-data="{&quot;index&quot;:null}" fill="none" stroke="#808080" stroke-width="1"/></g></g></svg>